<svg width="14" height="14" viewBox="0 0 14 14" fill="none" xmlns="http://www.w3.org/2000/svg">
<g id="Icon" clip-path="url(#clip0_636_894)">
<path id="Vector" d="M1.26102 1.11894L0.85802 1.53494L1.39102 1.98994C2.26635 2.71794 3.26302 3.27261 4.38102 3.65394C4.80569 3.80127 5.17402 3.89661 5.48602 3.93994C5.82402 3.99194 6.31369 4.02227 6.95502 4.03094C7.40569 4.03094 7.83035 4.02227 8.22902 4.00494C8.64502 3.98761 8.92669 3.96161 9.07402 3.92694C9.18669 3.90094 9.25169 3.90527 9.26902 3.93994C9.28635 3.97461 9.23652 4.06561 9.11952 4.21294C9.00252 4.36027 8.79235 4.59861 8.48902 4.92794C8.19435 5.23127 7.76102 5.67327 7.18902 6.25394L5.07002 8.38594L0.52002 12.9359L0.88402 13.3259L1.27402 13.6899L5.82402 9.13994L7.95602 7.02094C8.53669 6.44894 8.97869 6.01561 9.28202 5.72094C9.61135 5.41761 9.84969 5.20744 9.99702 5.09044C10.1444 4.97344 10.2354 4.92361 10.27 4.94094C10.3047 4.95827 10.309 5.02327 10.283 5.13594C10.2484 5.28327 10.2224 5.56494 10.205 5.98094C10.1877 6.37961 10.179 6.80427 10.179 7.25494C10.1877 7.89627 10.218 8.38594 10.27 8.72394C10.3134 9.03594 10.4087 9.40427 10.556 9.82894C10.9374 10.9469 11.492 11.9436 12.22 12.8189L12.675 13.3519L13.091 12.9489L13.52 12.5459L13.195 12.1949C13.0217 12.0303 12.7444 11.6403 12.363 11.0249C11.8084 10.1063 11.4617 9.11827 11.323 8.06094C11.1844 7.01227 11.2559 5.97444 11.5375 4.94744C11.8192 3.92044 12.298 2.97794 12.974 2.11994L13.507 1.44394L13.156 1.06694L12.792 0.702941L12.441 0.975941C12.0424 1.27927 11.6134 1.57177 11.154 1.85344C10.6947 2.13511 10.3134 2.33661 10.01 2.45794C9.54202 2.63994 8.94619 2.78077 8.22252 2.88044C7.49885 2.98011 6.90302 2.99961 6.43502 2.93894C5.62902 2.84361 4.81219 2.61611 3.98452 2.25644C3.15685 1.89677 2.50035 1.48294 2.01502 1.01494L1.66402 0.689941L1.26102 1.11894Z" fill="#404A3D"/>
</g>
<defs>
<clipPath id="clip0_636_894">
<rect width="13" height="13" fill="white" transform="matrix(1 0 0 -1 0.52002 13.6899)"/>
</clipPath>
</defs>
</svg>
