<svg width="46" height="46" viewBox="0 0 46 46" fill="none" xmlns="http://www.w3.org/2000/svg">
<g id="Icon">
<path id="Vector" d="M12.2001 40.25C10.1001 40.25 8.17506 39.675 6.42506 38.525C4.67506 37.375 3.37506 35.8 2.52506 33.8C1.67506 31.8 1.47506 29.775 1.92506 27.725C2.37506 25.675 3.35006 23.9 4.85006 22.4C6.35006 20.9 8.12506 19.95 10.1751 19.55C12.2251 19.15 14.2251 19.35 16.1751 20.15C18.1251 20.95 19.7001 22.225 20.9001 23.975C22.1001 25.725 22.7001 27.65 22.7001 29.75C22.7001 31.65 22.2251 33.4 21.2751 35C20.3251 36.6 19.0501 37.875 17.4501 38.825C15.8501 39.775 14.1001 40.25 12.2001 40.25ZM12.2001 20.45C10.5001 20.45 8.95006 20.875 7.55006 21.725C6.15006 22.575 5.02506 23.7 4.17506 25.1C3.32506 26.5 2.90006 28.05 2.90006 29.75C2.90006 31.45 3.32506 33 4.17506 34.4C5.02506 35.8 6.15006 36.925 7.55006 37.775C8.95006 38.625 10.5001 39.05 12.2001 39.05C13.9001 39.05 15.4501 38.625 16.8501 37.775C18.2501 36.925 19.3751 35.8 20.2251 34.4C21.0751 33 21.5001 31.45 21.5001 29.75C21.5001 28.05 21.0751 26.5 20.2251 25.1C19.3751 23.7 18.2501 22.575 16.8501 21.725C15.4501 20.875 13.9001 20.45 12.2001 20.45ZM12.2001 35.9C10.5001 35.9 9.05006 35.3 7.85006 34.1C6.65006 32.9 6.05006 31.45 6.05006 29.75C6.05006 28.05 6.65006 26.6 7.85006 25.4C9.05006 24.2 10.5001 23.6 12.2001 23.6C13.9001 23.6 15.3501 24.2 16.5501 25.4C17.7501 26.6 18.3501 28.05 18.3501 29.75C18.3501 31.45 17.7501 32.9 16.5501 34.1C15.3501 35.3 13.9001 35.9 12.2001 35.9ZM12.2001 24.8C11.2001 24.8 10.2751 25.075 9.42506 25.625C8.57506 26.175 7.97506 26.925 7.62506 27.875C7.27506 28.825 7.20006 29.8 7.40006 30.8C7.60006 31.8 8.05006 32.65 8.75006 33.35C9.45006 34.05 10.2751 34.5 11.2251 34.7C12.1751 34.9 13.1251 34.8 14.0751 34.4C15.0251 34 15.7751 33.375 16.3251 32.525C16.8751 31.675 17.1501 30.75 17.1501 29.75C17.1501 28.45 16.6751 27.3 15.7251 26.3C14.7751 25.3 13.6001 24.8 12.2001 24.8ZM6.50006 22.4H6.35006C6.25006 22.4 6.12506 22.325 5.97506 22.175C5.82506 22.025 5.80006 21.85 5.90006 21.65L7.10006 6.35C7.10006 6.15 7.17506 6 7.32506 5.9C7.47506 5.8 7.62506 5.75 7.77506 5.75C7.92506 5.75 8.05006 5.825 8.15006 5.975C8.25006 6.125 8.30006 6.25 8.30006 6.35L7.10006 21.8C7.10006 22 7.02506 22.15 6.87506 22.25C6.72506 22.35 6.60006 22.4 6.50006 22.4ZM30.6501 34.1H21.3501C21.1501 34.1 21.0001 34.05 20.9001 33.95C20.8001 33.85 20.7501 33.7 20.7501 33.5C20.7501 33.3 20.8001 33.15 20.9001 33.05C21.0001 32.95 21.1501 32.9 21.3501 32.9H30.6501C30.7501 32.9 30.8751 32.95 31.0251 33.05C31.1751 33.15 31.2501 33.3 31.2501 33.5C31.2501 33.7 31.1751 33.85 31.0251 33.95C30.8751 34.05 30.7501 34.1 30.6501 34.1ZM41.6001 34.1H38.4501C38.2501 34.1 38.1001 34.05 38.0001 33.95C37.9001 33.85 37.8501 33.7 37.8501 33.5C37.8501 33.3 37.9001 33.15 38.0001 33.05C38.1001 32.95 38.2501 32.9 38.4501 32.9H41.6001L43.1001 22.4C43.1001 21.9 42.9501 21.45 42.6501 21.05C42.3501 20.65 41.9001 20.45 41.3001 20.45H12.2001C12.0001 20.45 11.8251 20.35 11.6751 20.15C11.5251 19.95 11.5251 19.75 11.6751 19.55C11.8251 19.35 12.0001 19.25 12.2001 19.25H41.3001C42.2001 19.25 42.9501 19.6 43.5501 20.3C44.1501 21 44.4001 21.75 44.3001 22.55L42.8001 33.05C42.8001 33.35 42.6751 33.6 42.4251 33.8C42.1751 34 41.9001 34.1 41.6001 34.1ZM34.5501 40.25C33.1501 40.25 31.9751 39.775 31.0251 38.825C30.0751 37.875 29.6001 36.725 29.6001 35.375C29.6001 34.025 30.0751 32.85 31.0251 31.85C31.9751 30.85 33.1251 30.35 34.4751 30.35C35.8251 30.35 36.9751 30.85 37.9251 31.85C38.8751 32.85 39.3501 34.025 39.3501 35.375C39.3501 36.725 38.8751 37.875 37.9251 38.825C36.9751 39.775 35.8501 40.25 34.5501 40.25ZM34.5501 31.7C33.4501 31.7 32.5501 32.05 31.8501 32.75C31.1501 33.45 30.8001 34.3 30.8001 35.3C30.8001 36.3 31.1501 37.175 31.8501 37.925C32.5501 38.675 33.4251 39.05 34.4751 39.05C35.5251 39.05 36.4001 38.7 37.1001 38C37.8001 37.3 38.1501 36.425 38.1501 35.375C38.1501 34.325 37.8001 33.45 37.1001 32.75C36.4001 32.05 35.5501 31.7 34.5501 31.7ZM34.5501 37.85C34.0501 37.85 33.5751 37.7 33.1251 37.4C32.6751 37.1 32.3751 36.725 32.2251 36.275C32.0751 35.825 32.0251 35.35 32.0751 34.85C32.1251 34.35 32.3501 33.925 32.7501 33.575C33.1501 33.225 33.5751 33 34.0251 32.9C34.4751 32.8 34.9251 32.85 35.3751 33.05C35.8251 33.25 36.2001 33.55 36.5001 33.95C36.8001 34.35 36.9501 34.85 36.9501 35.45C36.9501 36.05 36.7001 36.6 36.2001 37.1C35.7001 37.6 35.1501 37.85 34.5501 37.85ZM34.5501 34.1C33.9501 34.1 33.5501 34.35 33.3501 34.85C33.1501 35.35 33.2501 35.8 33.6501 36.2C34.0501 36.6 34.5001 36.7 35.0001 36.5C35.5001 36.3 35.7501 35.975 35.7501 35.525C35.7501 35.075 35.6251 34.725 35.3751 34.475C35.1251 34.225 34.8501 34.1 34.5501 34.1ZM37.4001 24.05H33.8001C33.6001 24.05 33.4501 24 33.3501 23.9C33.2501 23.8 33.2001 23.65 33.2001 23.45C33.2001 23.25 33.2501 23.1 33.3501 23C33.4501 22.9 33.6001 22.85 33.8001 22.85H37.4001C37.6001 22.85 37.7501 22.9 37.8501 23C37.9501 23.1 38.0001 23.25 38.0001 23.45C38.0001 23.65 37.9501 23.8 37.8501 23.9C37.7501 24 37.6001 24.05 37.4001 24.05ZM37.4001 26.6H33.8001C33.6001 26.6 33.4251 26.5 33.2751 26.3C33.1251 26.1 33.1251 25.9 33.2751 25.7C33.4251 25.5 33.6001 25.4 33.8001 25.4H37.4001C37.6001 25.4 37.7501 25.475 37.8501 25.625C37.9501 25.775 38.0001 25.925 38.0001 26.075C38.0001 26.225 37.9501 26.35 37.8501 26.45C37.7501 26.55 37.6001 26.6 37.4001 26.6ZM23.7501 20.45C23.4501 20.45 23.2501 20.3 23.1501 20L21.0501 8.45C21.0501 8.05 20.8751 7.7 20.5251 7.4C20.1751 7.1 19.7501 6.95 19.2501 6.95H4.85006C4.65006 6.95 4.50006 6.9 4.40006 6.8C4.30006 6.7 4.25006 6.55 4.25006 6.35C4.25006 6.15 4.30006 6 4.40006 5.9C4.50006 5.8 4.65006 5.75 4.85006 5.75H19.2501C20.0501 5.75 20.7251 5.975 21.2751 6.425C21.8251 6.875 22.1501 7.45 22.2501 8.15L24.3501 19.85C24.4501 20.05 24.4251 20.2 24.2751 20.3C24.1251 20.4 23.9501 20.45 23.7501 20.45ZM34.8501 15.05C34.6501 15.05 34.5001 15 34.4001 14.9C34.3001 14.8 34.2501 14.65 34.2501 14.45V13.55C34.2501 13.05 34.0751 12.65 33.7251 12.35C33.3751 12.05 33.0001 11.9 32.6001 11.9C32.4001 11.9 32.2501 11.85 32.1501 11.75C32.0501 11.65 32.0001 11.5 32.0001 11.3C32.0001 11.1 32.0501 10.95 32.1501 10.85C32.2501 10.75 32.4001 10.7 32.6001 10.7C33.4001 10.7 34.0751 10.975 34.6251 11.525C35.1751 12.075 35.4501 12.75 35.4501 13.55V14.45C35.4501 14.65 35.4001 14.8 35.3001 14.9C35.2001 15 35.0501 15.05 34.8501 15.05ZM18.8001 16.7H10.8501C10.6501 16.7 10.5001 16.625 10.4001 16.475C10.3001 16.325 10.2501 16.15 10.2501 15.95L10.8501 9.5C10.8501 9.3 10.9251 9.15 11.0751 9.05C11.2251 8.95 11.3501 8.9 11.4501 8.9H18.2001C18.3001 8.9 18.4001 8.95 18.5001 9.05C18.6001 9.15 18.7001 9.3 18.8001 9.5L19.4001 15.95C19.4001 16.15 19.3501 16.325 19.2501 16.475C19.1501 16.625 19.0001 16.7 18.8001 16.7ZM11.4501 15.35H18.0501L17.6001 10.1H12.0501L11.4501 15.35ZM36.2001 20.45H33.5001C33.4001 20.45 33.2751 20.4 33.1251 20.3C32.9751 20.2 32.9001 20.05 32.9001 19.85V14.45C32.9001 14.25 32.9751 14.1 33.1251 14C33.2751 13.9 33.4001 13.85 33.5001 13.85H36.2001C36.4001 13.85 36.5501 13.9 36.6501 14C36.7501 14.1 36.8001 14.25 36.8001 14.45V19.85C36.8001 20.05 36.7501 20.2 36.6501 20.3C36.5501 20.4 36.4001 20.45 36.2001 20.45ZM34.1001 19.25H35.6001V15.05H34.1001V19.25Z" fill="white"/>
</g>
</svg>
