<svg width="46" height="46" viewBox="0 0 46 46" fill="none" xmlns="http://www.w3.org/2000/svg">
<g id="Icon">
<path id="Vector" d="M40.55 39.05H5.44995C4.44995 39.05 3.57495 38.675 2.82495 37.925C2.07495 37.175 1.69995 36.3 1.69995 35.3V26C1.69995 25.7 1.79995 25.45 1.99995 25.25C2.19995 25.05 2.39995 24.95 2.59995 24.95H6.34995C6.64995 24.95 6.87495 25.05 7.02495 25.25C7.17495 25.45 7.24995 25.7 7.24995 26V27.65C7.24995 27.75 7.29995 27.85 7.39995 27.95C7.49995 28.05 7.64995 28.1 7.84995 28.1H13.7C13.8 28.1 13.9 28.05 14 27.95C14.1 27.85 14.15 27.75 14.15 27.65V26C14.15 25.7 14.25 25.45 14.45 25.25C14.65 25.05 14.85 24.95 15.05 24.95H18.8C19.1 24.95 19.325 25.05 19.475 25.25C19.625 25.45 19.7 25.7 19.7 26V27.65C19.7 27.75 19.75 27.85 19.85 27.95C19.95 28.05 20.1 28.1 20.3 28.1H25.7C25.8 28.1 25.9 28.05 26 27.95C26.1 27.85 26.15 27.75 26.15 27.65V26C26.15 25.7 26.25 25.45 26.45 25.25C26.65 25.05 26.85 24.95 27.05 24.95H30.95C31.25 24.95 31.475 25.05 31.625 25.25C31.775 25.45 31.85 25.7 31.85 26V27.65C31.85 27.75 31.9 27.85 32 27.95C32.1 28.05 32.25 28.1 32.45 28.1H38.15C38.35 28.1 38.5 28.05 38.6 27.95C38.7 27.85 38.75 27.75 38.75 27.65V26C38.75 25.7 38.825 25.45 38.975 25.25C39.125 25.05 39.35 24.95 39.65 24.95H43.4C43.6 24.95 43.8 25.05 44 25.25C44.2 25.45 44.3 25.7 44.3 26V35.3C44.3 36.3 43.925 37.175 43.175 37.925C42.425 38.675 41.55 39.05 40.55 39.05ZM2.89995 26.15V35.3C2.89995 36 3.14995 36.6 3.64995 37.1C4.14995 37.6 4.74995 37.85 5.44995 37.85H40.55C41.25 37.85 41.85 37.6 42.35 37.1C42.85 36.6 43.1 36 43.1 35.3V26.15H39.95V27.65C39.95 28.15 39.775 28.55 39.425 28.85C39.075 29.15 38.65 29.3 38.15 29.3H32.45C31.95 29.3 31.525 29.15 31.175 28.85C30.825 28.55 30.65 28.15 30.65 27.65V26.15H27.35V27.65C27.35 28.15 27.175 28.55 26.825 28.85C26.475 29.15 26.1 29.3 25.7 29.3H20.3C19.8 29.3 19.375 29.15 19.025 28.85C18.675 28.55 18.5 28.15 18.5 27.65V26.15H15.35V27.65C15.35 28.15 15.175 28.55 14.825 28.85C14.475 29.15 14.1 29.3 13.7 29.3H7.84995C7.34995 29.3 6.92495 29.15 6.57495 28.85C6.22495 28.55 6.04995 28.15 6.04995 27.65V26.15H2.89995ZM43.7 34.25H2.29995C2.09995 34.25 1.94995 34.2 1.84995 34.1C1.74995 34 1.69995 33.875 1.69995 33.725C1.69995 33.575 1.74995 33.425 1.84995 33.275C1.94995 33.125 2.09995 33.05 2.29995 33.05H43.7C43.9 33.05 44.05 33.125 44.15 33.275C44.25 33.425 44.3 33.575 44.3 33.725C44.3 33.875 44.25 34 44.15 34.1C44.05 34.2 43.9 34.25 43.7 34.25ZM35.15 29.3C34.95 29.3 34.8 29.25 34.7 29.15C34.6 29.05 34.55 28.9 34.55 28.7V13.55C34.55 13.45 34.6 13.325 34.7 13.175C34.8 13.025 34.925 12.95 35.075 12.95C35.225 12.95 35.375 13.025 35.525 13.175C35.675 13.325 35.75 13.45 35.75 13.55V28.7C35.75 28.9 35.675 29.05 35.525 29.15C35.375 29.25 35.25 29.3 35.15 29.3ZM35.15 14.15C33.25 14.15 31.675 13.5 30.425 12.2C29.175 10.9 28.5 9.35005 28.4 7.55005C28.4 7.35005 28.475 7.20005 28.625 7.10005C28.775 7.00005 28.95 6.95005 29.15 6.95005C30.95 6.95005 32.5 7.60005 33.8 8.90005C35.1 10.2 35.75 11.75 35.75 13.55C35.75 13.75 35.675 13.9 35.525 14C35.375 14.1 35.25 14.15 35.15 14.15ZM29.75 8.15005C29.85 9.45005 30.35 10.525 31.25 11.375C32.15 12.225 33.2 12.75 34.4 12.95C34.3 11.75 33.8 10.7 32.9 9.80005C32 8.90005 30.95 8.35005 29.75 8.15005ZM35.15 22.1C34.95 22.1 34.8 22.05 34.7 21.95C34.6 21.85 34.55 21.7 34.55 21.5C34.55 19.7 35.2 18.15 36.5 16.85C37.8 15.55 39.35 14.9 41.15 14.9C41.35 14.9 41.5 14.95 41.6 15.05C41.7 15.15 41.75 15.3 41.75 15.5C41.75 17.3 41.1 18.85 39.8 20.15C38.5 21.45 36.95 22.1 35.15 22.1ZM40.55 16.1C39.25 16.3 38.175 16.825 37.325 17.675C36.475 18.525 35.95 19.6 35.75 20.9C37.05 20.7 38.125 20.175 38.975 19.325C39.825 18.475 40.35 17.4 40.55 16.1ZM23 29.3C22.8 29.3 22.65 29.25 22.55 29.15C22.45 29.05 22.4 28.9 22.4 28.7V13.55C22.4 13.45 22.45 13.325 22.55 13.175C22.65 13.025 22.8 12.95 23 12.95C23.2 12.95 23.35 13.025 23.45 13.175C23.55 13.325 23.6 13.45 23.6 13.55V28.7C23.6 28.9 23.55 29.05 23.45 29.15C23.35 29.25 23.2 29.3 23 29.3ZM23 14.15C21.2 14.15 19.65 13.5 18.35 12.2C17.05 10.9 16.4 9.35005 16.4 7.55005C16.4 7.35005 16.45 7.20005 16.55 7.10005C16.65 7.00005 16.8 6.95005 17 6.95005C18.8 6.95005 20.35 7.60005 21.65 8.90005C22.95 10.2 23.6 11.75 23.6 13.55C23.6 13.75 23.55 13.9 23.45 14C23.35 14.1 23.2 14.15 23 14.15ZM17.6 8.15005C17.8 9.45005 18.325 10.525 19.175 11.375C20.025 12.225 21.1 12.75 22.4 12.95C22.2 11.75 21.65 10.7 20.75 9.80005C19.85 8.90005 18.8 8.35005 17.6 8.15005ZM23 22.1C22.8 22.1 22.65 22.05 22.55 21.95C22.45 21.85 22.4 21.7 22.4 21.5C22.4 19.7 23.05 18.15 24.35 16.85C25.65 15.55 27.2 14.9 29 14.9C29.2 14.9 29.35 14.95 29.45 15.05C29.55 15.15 29.6 15.3 29.6 15.5C29.6 17.3 28.95 18.85 27.65 20.15C26.35 21.45 24.8 22.1 23 22.1ZM28.4 16.1C27.2 16.3 26.15 16.825 25.25 17.675C24.35 18.525 23.8 19.6 23.6 20.9C24.9 20.7 25.975 20.175 26.825 19.325C27.675 18.475 28.2 17.4 28.4 16.1ZM10.85 29.3C10.75 29.3 10.625 29.25 10.475 29.15C10.325 29.05 10.25 28.9 10.25 28.7V13.55C10.25 13.45 10.325 13.325 10.475 13.175C10.625 13.025 10.775 12.95 10.925 12.95C11.075 12.95 11.2 13.025 11.3 13.175C11.4 13.325 11.45 13.45 11.45 13.55V28.7C11.45 28.9 11.4 29.05 11.3 29.15C11.2 29.25 11.05 29.3 10.85 29.3ZM10.85 14.15C9.04995 14.15 7.49995 13.5 6.19995 12.2C4.89995 10.9 4.24995 9.35005 4.24995 7.55005C4.24995 7.35005 4.29995 7.20005 4.39995 7.10005C4.49995 7.00005 4.64995 6.95005 4.84995 6.95005C6.64995 6.95005 8.19995 7.60005 9.49995 8.90005C10.8 10.2 11.45 11.75 11.45 13.55C11.45 13.75 11.4 13.9 11.3 14C11.2 14.1 11.05 14.15 10.85 14.15ZM5.44995 8.15005C5.64995 9.45005 6.17495 10.525 7.02495 11.375C7.87495 12.225 8.94995 12.75 10.25 12.95C10.05 11.75 9.52495 10.7 8.67495 9.80005C7.82495 8.90005 6.74995 8.35005 5.44995 8.15005ZM10.85 22.1C10.75 22.1 10.625 22.05 10.475 21.95C10.325 21.85 10.25 21.7 10.25 21.5C10.25 19.7 10.9 18.15 12.2 16.85C13.5 15.55 15.05 14.9 16.85 14.9C17.05 14.9 17.225 14.95 17.375 15.05C17.525 15.15 17.6 15.3 17.6 15.5C17.5 17.3 16.825 18.85 15.575 20.15C14.325 21.45 12.75 22.1 10.85 22.1ZM16.25 16.1C15.05 16.3 14 16.825 13.1 17.675C12.2 18.525 11.7 19.6 11.6 20.9C12.8 20.7 13.85 20.175 14.75 19.325C15.65 18.475 16.15 17.4 16.25 16.1Z" fill="white"/>
</g>
</svg>
