<svg width="46" height="46" viewBox="0 0 46 46" fill="none" xmlns="http://www.w3.org/2000/svg">
<g id="Icon">
<path id="Vector" d="M6.79995 38.3001H3.49995C2.99995 38.3001 2.57495 38.1251 2.22495 37.7751C1.87495 37.4251 1.69995 37.0001 1.69995 36.5001V22.7001C1.69995 22.2001 1.87495 21.7751 2.22495 21.4251C2.57495 21.0751 2.99995 20.9001 3.49995 20.9001H6.79995C7.29995 20.9001 7.72495 21.0751 8.07495 21.4251C8.42495 21.7751 8.59995 22.2001 8.59995 22.7001V36.5001C8.59995 37.0001 8.42495 37.4251 8.07495 37.7751C7.72495 38.1251 7.29995 38.3001 6.79995 38.3001ZM3.49995 22.1001C3.39995 22.1001 3.27495 22.1501 3.12495 22.2501C2.97495 22.3501 2.89995 22.5001 2.89995 22.7001V36.5001C2.89995 36.7001 2.97495 36.8501 3.12495 36.9501C3.27495 37.0501 3.39995 37.1001 3.49995 37.1001H6.79995C6.89995 37.1001 7.02495 37.0501 7.17495 36.9501C7.32495 36.8501 7.39995 36.7001 7.39995 36.5001V22.7001C7.39995 22.5001 7.32495 22.3501 7.17495 22.2501C7.02495 22.1501 6.89995 22.1001 6.79995 22.1001H3.49995ZM27.95 32.3001H17.3C17.1 32.3001 16.95 32.2001 16.85 32.0001C16.75 31.8001 16.75 31.6001 16.85 31.4001C16.95 31.2001 17.1 31.1001 17.3 31.1001H27.95C28.35 31.1001 28.725 30.9251 29.075 30.5751C29.425 30.2251 29.6 29.8251 29.6 29.3751C29.6 28.9251 29.425 28.5501 29.075 28.2501C28.725 27.9501 28.35 27.8001 27.95 27.8001H24.2C22.8 27.8001 21.65 27.2751 20.75 26.2251C19.85 25.1751 18.75 24.6501 17.45 24.6501H7.99995C7.79995 24.6501 7.64995 24.6001 7.54995 24.5001C7.44995 24.4001 7.39995 24.2501 7.39995 24.0501C7.39995 23.8501 7.44995 23.7001 7.54995 23.6001C7.64995 23.5001 7.79995 23.4501 7.99995 23.4501H17.45C19.15 23.4501 20.55 24.1001 21.65 25.4001C22.25 26.1001 23.1 26.4501 24.2 26.4501H27.95C28.75 26.4501 29.425 26.7501 29.975 27.3501C30.525 27.9501 30.8 28.6501 30.8 29.4501C30.8 30.2501 30.525 30.9251 29.975 31.4751C29.425 32.0251 28.75 32.3001 27.95 32.3001ZM22.85 40.1001C21.35 40.1001 19.9 39.8501 18.5 39.3501L7.69995 35.4501C7.59995 35.3501 7.52495 35.2251 7.47495 35.0751C7.42495 34.9251 7.42495 34.7751 7.47495 34.6251C7.52495 34.4751 7.62495 34.3501 7.77495 34.2501C7.92495 34.1501 8.04995 34.1501 8.14995 34.2501L18.95 38.1501C20.45 38.7501 21.975 39.0001 23.525 38.9001C25.075 38.8001 26.6 38.4001 28.1 37.7001L42.95 29.7501C42.25 29.0501 41.425 28.6001 40.475 28.4001C39.525 28.2001 38.6 28.3001 37.7 28.7001L29.75 31.5501C29.55 31.6501 29.35 31.6251 29.15 31.4751C28.95 31.3251 28.875 31.1251 28.925 30.8751C28.975 30.6251 29.1 30.4501 29.3 30.3501L37.25 27.5001C38.35 27.1001 39.5 27.0251 40.7 27.2751C41.9 27.5251 42.95 28.1001 43.85 29.0001L44 29.1501C44.2 29.3501 44.275 29.6251 44.225 29.9751C44.175 30.3251 44 30.5501 43.7 30.6501L28.55 38.7501C26.85 39.6501 24.95 40.1001 22.85 40.1001ZM35 29.4501C35 29.4501 34.95 29.4501 34.85 29.4501C34.75 29.4501 34.65 29.3751 34.55 29.2251C34.45 29.0751 34.4 28.9001 34.4 28.7001L34.55 27.9501C34.55 26.1501 33.975 24.5751 32.825 23.2251C31.675 21.8751 30.25 21.0001 28.55 20.6001C26.85 20.2001 25.2 20.4001 23.6 21.2001C22 22.0001 20.85 23.2001 20.15 24.8001C20.05 25.1001 19.9 25.2501 19.7 25.2501C19.5 25.2501 19.325 25.1501 19.175 24.9501C19.025 24.7501 19 24.5501 19.1 24.3501C19.9 22.4501 21.225 21.0501 23.075 20.1501C24.925 19.2501 26.85 19.0001 28.85 19.4001C30.85 19.8001 32.5 20.8001 33.8 22.4001C35.1 24.0001 35.75 25.8501 35.75 27.9501L35.6 28.8501C35.6 29.0501 35.55 29.2001 35.45 29.3001C35.35 29.4001 35.2 29.4501 35 29.4501ZM27.35 20.4501C27.35 20.4501 27.3 20.4501 27.2 20.4501C27.1 20.4501 27 20.3751 26.9 20.2251C26.8 20.0751 26.75 19.9501 26.75 19.8501C27.05 15.0501 28.25 11.4001 30.35 8.9001C31.55 7.5001 33.05 6.5001 34.85 5.9001C35.05 5.80009 35.225 5.80009 35.375 5.9001C35.525 6.0001 35.625 6.1251 35.675 6.2751C35.725 6.42509 35.7 6.5751 35.6 6.7251C35.5 6.8751 35.4 7.0001 35.3 7.1001C33.7 7.6001 32.35 8.5001 31.25 9.8001C29.35 12.0001 28.25 15.3501 27.95 19.8501C27.95 20.0501 27.875 20.2001 27.725 20.3001C27.575 20.4001 27.45 20.4501 27.35 20.4501ZM24.35 16.5501C23.45 16.5501 22.6 16.4001 21.8 16.1001C20.7 15.7001 19.75 15.0751 18.95 14.2251C18.15 13.3751 17.6 12.4001 17.3 11.3001C17.1 11.0001 17.15 10.7501 17.45 10.5501C18.45 9.9501 19.525 9.6001 20.675 9.5001C21.825 9.4001 22.95 9.5501 24.05 9.9501C25.15 10.3501 26.1 10.9751 26.9 11.8251C27.7 12.6751 28.25 13.6501 28.55 14.7501C28.65 15.1501 28.55 15.4001 28.25 15.5001C27.05 16.2001 25.75 16.5501 24.35 16.5501ZM18.5 11.3001C19.2 13.1001 20.425 14.3251 22.175 14.9751C23.925 15.6251 25.6 15.5501 27.2 14.7501C26.6 12.9501 25.425 11.7251 23.675 11.0751C21.925 10.4251 20.2 10.5001 18.5 11.3001ZM33.95 13.8501C32.95 13.8501 32.05 13.6501 31.25 13.2501C30.45 12.8501 29.75 12.3001 29.15 11.6001C28.95 11.3001 28.95 11.0501 29.15 10.8501C29.75 10.0501 30.45 9.4501 31.25 9.0501C32.05 8.6501 32.95 8.4501 33.95 8.4501C34.85 8.4501 35.725 8.6501 36.575 9.0501C37.425 9.4501 38.1 10.0501 38.6 10.8501C38.9 11.0501 38.9 11.3001 38.6 11.6001C38.1 12.3001 37.425 12.8501 36.575 13.2501C35.725 13.6501 34.85 13.8501 33.95 13.8501ZM30.5 11.1501C31.4 12.1501 32.55 12.6501 33.95 12.6501C35.25 12.6501 36.4 12.1501 37.4 11.1501C36.4 10.1501 35.25 9.6501 33.95 9.6501C32.55 9.6501 31.4 10.1501 30.5 11.1501Z" fill="white"/>
</g>
</svg>
